<svg viewBox="172.48 222.25 592.48 651.51" xmlns="http://www.w3.org/2000/svg">
<g transform="translate(0 1024) scale(.1 -.1)">
<path d="m5639 8010c-206-52-362-205-414-407-19-72-19-200 0-278 8-33 14-65 15-71 0-5-44-21-97-33-130-31-225-67-369-139-241-120-367-212-569-416-161-162-282-313-359-451-26-47-50-85-53-85s-22 13-42 28c-176 138-452 220-572 169-168-70-325-713-280-1146 14-136 50-280 90-364 27-57 30-70 25-133-10-124 59-304 142-372 36-30 36-31 24-69-50-152-162-244-336-276-38-7-64-16-59-19 42-25 192-60 278-65 53-3 97-10 97-15 0-22-129-164-195-213-79-60-167-155-143-155 8 0 59 13 114 30 185 56 254 38 269-68 10-77-22-140-130-247-48-48-85-88-83-90 2-1 86 21 188 51 102 29 192 53 200 53s29-18 45-40c91-124 314-278 482-333 51-17 54-21 93-94 66-126 179-245 304-318 59-35 235-114 253-114s187-72 283-120c54-27 125-71 157-99 60-50 148-152 175-205l15-28 22 35c39 64 143 151 239 200 50 26 167 76 259 112 214 81 374 152 454 201 120 72 268 231 325 347 27 55 30 57 138 111 164 82 230 128 347 246l105 106 135-36c74-20 156-44 183-53 45-16 47-16 35 1-8 9-17 19-20 22-19 16-130 151-153 187-38 58-47 147-18 183 19 23 26 25 99 24 57-2 102-10 168-32 49-17 92-29 94-26 12 12-84 112-164 169-58 42-185 174-185 193 0 5 53 12 118 14 93 5 135 12 207 35 82 27 87 31 60 37-16 4-59 14-95 22-85 20-157 54-196 93-51 50-104 134-110 173-6 31-1 42 38 89 74 92 93 146 93 269 0 82-4 115-19 147-18 40-18 42 2 95 42 112 65 296 66 523 1 218-7 297-49 501-30 142-66 248-117 347-64 122-112 147-250 128-139-19-344-104-455-188-24-18-47-33-51-33-4 1-28 35-54 78-105 174-276 373-420 489-38 30-68 58-68 62 0 5 32 34 70 65 155 125 263 289 296 451 22 105 15 263-16 354-60 177-192 314-361 372-71 24-238 35-300 19zm238-250c48-21 123-93 149-141 10-20 19-65 22-110 4-67 1-84-21-132-29-64-86-125-142-152-57-27-164-32-223-9-138 52-224 232-178 371 17 53 67 118 115 153 71 50 191 59 278 20zm-2469-1666c42-14 105-41 140-60 62-33 166-106 175-121 3-5-15-35-40-68s-58-84-75-113c-16-28-34-49-39-46s-9-2-9-11c0-36-182 183-232 279l-20 40-24-90c-64-236-86-451-66-629 10-88 10-92-21-180l-31-90-13 55c-60 271-30 706 67 964 40 104 62 113 188 70zm3664-29c96-177 151-537 128-830-6-71-13-146-16-165l-6-35-19 48c-10 26-26 58-35 72-13 20-16 63-18 242-4 231-12 293-65 497l-28 108-26-55c-37-82-96-164-168-234-35-34-68-64-73-65-5-2-14 13-21 32-14 40-76 149-112 197l-24 32 51 40c108 86 306 174 375 169 25-3 35-12 57-53zm-1692-370c539-17 1208-281 1547-608 136-131 200-268 210-448 6-105-3-146-43-194l-25-30-21 30c-78 107-232 239-388 332-364 217-772 348-1260 404-234 27-527 23-744-11-610-93-1214-380-1338-634-12-25-25-46-29-46-14 0-29 101-29 193 0 115 18 187 72 297 159 317 708 601 1353 700 99 16 329 27 455 23 52-1 160-5 240-8zm-90-645c185-9 221-13 370-49 310-74 588-172 780-273 108-57 290-176 290-190 0-5 15-22 34-39 68-59 205-307 277-502 35-95 35-99 7-87-39 17-145 38-156 31-6-3 9-31 35-66 45-59 103-168 103-192 0-19-13-16-54 12-20 13-36 22-36 19 0-2 11-26 24-52 31-62 39-104 31-159l-7-46-60 67c-33 36-63 64-68 61-4-3-11-49-15-103l-7-99-57-74c-175-228-568-377-938-356l-103 6-83-53c-151-94-329-136-498-116-148 17-246 50-371 126l-60 37-187 1c-186 1-186 1-316 40-247 74-425 167-540 283-75 76-103 137-115 256-4 43-12 83-18 89-7 7-26-16-58-71-27-44-52-80-55-81-13 0-42 144-43 211 0 60 5 78 41 151 50 102 56 118 40 118-7 0-46-9-87-20-41-10-76-18-77-16-2 2 20 70 48 152 31 92 86 220 142 332l92 184 95 59c280 174 617 304 950 365 301 55 347 58 650 44z"/>
<path d="m3667 4212c-11-12-17-36-17-64 0-65 24-83 140-107 152-31 158-37 44-44-115-8-221-31-246-54-13-12-18-31-18-69 0-86 37-99 193-69 136 26 331 13 432-29 56-24 107-21 133 7 18 19 22 35 22 91v67l-56 59c-64 68-158 128-258 165-165 62-336 84-369 47z"/>
<path d="m6560 4143c-172-17-360-87-469-173-71-56-91-92-91-161 0-97 47-118 182-82 95 25 289 23 395-5 109-29 163-29 191 1s29 85 2 119c-24 31-140 65-255 77-73 7-78 9-52 19 15 6 69 17 120 23 115 14 137 30 137 100 0 39-4 51-26 68-26 21-49 23-134 14z"/>
<path d="m4666 3949c-22-17-26-28-26-72 0-110 87-220 198-253 84-24 244-17 296 14 37 22 38 22 64 4 85-60 268-65 371-12 117 60 191 229 128 288-35 33-96 30-129-5-14-16-29-38-32-50-10-33-69-79-110-87-74-14-156 32-156 89 0 12-10 31-23 43-50 47-167 16-167-44 0-14-11-36-25-49-19-20-34-25-75-25-88 0-147 40-165 113-16 61-97 87-149 46z"/>
<path d="m2048 4050c-67-36-110-111-122-212-7-53-9-57-38-64-19-4-53-28-84-59-66-66-91-135-74-210 14-63 60-128 108-154 17-9 21-21 21-73 0-81 5-100 36-154 43-74 128-129 255-164 57-17 76-18 184-20 73-1 95-6 115-21 15-11 58-42 96-69 165-116 232-164 316-227 38-29 72-53 74-53 3 0 27-17 54-37 26-21 57-44 67-51 22-14 289-188 439-285 131-84 445-288 715-463 118-76 251-163 295-191 90-60 104-54 56 22-113 178-148 420-91 625 35 123 38 115-64 161-49 22-112 55-140 73-124 80-242 207-299 322-31 63-31 63-106 89-145 52-310 162-420 282l-70 76-190-53c-104-29-196-50-205-47-9 4-16 18-16 33 0 20 18 44 74 98 79 77 136 157 136 192 0 24-45 67-97 92-31 15-38 14-130-12-115-33-156-32-161 2-3 17 11 41 48 83 61 70 61 78 4 192-82 165-185 258-311 282-39 8-139-11-171-31-20-13-26-13-50 0-62 34-80 39-147 43-56 2-78-1-107-17zm140-100c32-20 62-71 62-105 0-9-13-30-29-46-38-37-82-38-127-4-62 47-64 132-4 162 35 18 60 16 98-7zm390-24c13-7 32-26 43-42 65-99-50-195-139-115-32 30-36 41-33 96 2 59 73 93 129 61zm-585-310c41-33 49-97 17-131-19-20-33-25-73-25s-53 5-77 29c-40 39-47 73-23 113 29 50 103 57 156 14zm639 1c39-17 68-59 68-101 0-17-13-35-42-58-92-73-148-152-148-209 0-12-11-37-25-55-32-42-81-53-123-29-39 24-88 106-112 191-44 153-15 221 119 271 47 18 212 12 263-10zm-499-343c60-14 89-102 48-143-61-61-191-14-191 69 0 38 66 94 100 85 8-2 27-7 43-11z"/>
</g>
</svg>
