<svg xmlns="http://www.w3.org/2000/svg" version="1.0" preserveAspectRatio="xMidYMid meet" viewBox="277.62 222.16 487.72 614.24">

<g transform="translate(0.000000,1024.000000) scale(0.100000,-0.100000)" fill="#000000" stroke="none">
<path d="M5626 8009 c-61 -14 -176 -73 -224 -115 -56 -48 -136 -161 -163 -233 -30 -77 -38 -260 -15 -346 8 -33 12 -63 8 -66 -4 -4 -41 -14 -82 -24 -327 -78 -660 -269 -926 -533 -173 -171 -289 -316 -384 -482 -24 -41 -45 -76 -46 -78 -1 -2 -26 15 -55 37 -110 84 -265 150 -402 173 -172 28 -246 -37 -334 -297 -116 -345 -146 -703 -83 -1016 20 -97 62 -222 83 -248 8 -9 11 -45 9 -100 -2 -66 2 -102 19 -156 27 -87 87 -193 128 -222 30 -23 30 -24 16 -62 -23 -66 -46 -103 -97 -158 -40 -42 -66 -59 -127 -82 -43 -16 -101 -33 -130 -37 -29 -4 -49 -10 -44 -14 26 -25 185 -63 281 -68 56 -2 102 -7 102 -10 0 -22 -126 -163 -182 -204 -68 -49 -174 -161 -159 -166 4 -1 57 11 116 28 60 16 128 30 151 30 81 0 102 -22 119 -121 10 -55 -31 -125 -130 -225 -47 -46 -85 -86 -85 -88 0 -3 15 0 33 5 118 35 326 92 347 96 20 3 31 -5 55 -38 90 -123 313 -278 483 -334 50 -16 54 -20 86 -84 104 -206 264 -330 576 -447 330 -123 505 -244 592 -408 l20 -40 21 30 c11 16 48 56 81 90 76 75 181 133 381 209 334 127 481 198 589 285 93 75 179 177 226 267 34 65 39 70 116 108 206 103 339 202 442 330 l32 40 93 -24 c50 -14 132 -37 182 -52 49 -15 91 -26 93 -24 2 2 -32 44 -76 93 -94 105 -130 163 -138 223 -16 122 63 144 275 78 51 -17 98 -28 102 -27 19 6 -82 117 -149 162 -43 29 -98 81 -137 127 -36 43 -65 80 -65 82 0 2 57 7 128 10 103 4 142 10 205 32 73 25 92 45 44 45 -36 0 -165 39 -216 65 -52 26 -89 64 -138 140 -52 82 -52 95 0 162 26 32 55 79 66 104 42 95 45 231 7 322 -13 33 -13 41 5 92 54 154 84 528 60 750 -37 341 -134 638 -235 719 -37 30 -41 31 -130 30 -70 -1 -111 -8 -176 -29 -95 -31 -248 -105 -328 -158 l-52 -36 -16 27 c-142 235 -301 420 -495 575 l-34 27 35 27 c76 58 219 212 258 279 125 213 128 481 7 690 -67 116 -210 223 -345 259 -61 16 -213 18 -274 4z m251 -249 c48 -21 123 -93 149 -141 10 -20 19 -65 22 -110 4 -67 1 -84 -21 -132 -29 -64 -86 -125 -142 -152 -57 -27 -164 -32 -223 -9 -138 52 -224 232 -178 371 17 53 67 118 115 153 71 50 191 59 278 20z m-2469 -1666 c42 -14 105 -41 140 -60 62 -33 166 -106 175 -121 3 -5 -15 -35 -40 -68 -25 -33 -58 -84 -75 -113 -16 -28 -34 -49 -39 -46 -5 3 -9 -2 -9 -11 0 -36 -182 183 -232 279 l-20 40 -24 -90 c-64 -236 -86 -451 -66 -629 10 -88 10 -92 -21 -180 l-31 -90 -13 55 c-60 271 -30 706 67 964 40 104 62 113 188 70z m3664 -29 c96 -177 151 -537 128 -830 -6 -71 -13 -146 -16 -165 l-6 -35 -19 48 c-10 26 -26 58 -35 72 -13 20 -16 63 -18 242 -4 231 -12 293 -65 497 l-28 108 -26 -55 c-37 -82 -96 -164 -168 -234 -35 -34 -68 -64 -73 -65 -5 -2 -14 13 -21 32 -14 40 -76 149 -112 197 l-24 32 51 40 c108 86 306 174 375 169 25 -3 35 -12 57 -53z m-1692 -370 c539 -17 1208 -281 1547 -608 136 -131 200 -268 210 -448 6 -105 -3 -146 -43 -194 l-25 -30 -21 30 c-78 107 -232 239 -388 332 -364 217 -772 348 -1260 404 -234 27 -527 23 -744 -11 -610 -93 -1214 -380 -1338 -634 -12 -25 -25 -46 -29 -46 -14 0 -29 101 -29 193 0 115 18 187 72 297 159 317 708 601 1353 700 99 16 329 27 455 23 52 -1 160 -5 240 -8z m-90 -645 c185 -9 221 -13 370 -49 310 -74 588 -172 780 -273 108 -57 290 -176 290 -190 0 -5 15 -22 34 -39 68 -59 205 -307 277 -502 35 -95 35 -99 7 -87 -39 17 -145 38 -156 31 -6 -3 9 -31 35 -66 45 -59 103 -168 103 -192 0 -19 -13 -16 -54 12 -20 13 -36 22 -36 19 0 -2 11 -26 24 -52 31 -62 39 -104 31 -159 l-7 -46 -60 67 c-33 36 -63 66 -68 66 -4 0 -11 -47 -15 -103 l-7 -104 -57 -74 c-175 -228 -567 -377 -938 -356 l-103 6 -83 -53 c-151 -94 -329 -136 -498 -116 -149 17 -246 50 -372 127 l-61 37 -180 1 c-178 1 -184 2 -316 39 -243 69 -428 164 -545 283 -75 76 -103 137 -115 256 -4 43 -12 83 -18 89 -7 7 -26 -16 -58 -71 -27 -44 -52 -80 -55 -81 -13 0 -42 144 -42 209 -1 52 5 79 26 126 16 33 34 66 42 75 7 8 17 27 20 43 9 33 5 33 -95 7 -41 -10 -76 -18 -77 -16 -2 2 20 70 48 152 31 92 86 219 142 332 l92 184 85 52 c350 217 681 333 1135 401 185 27 202 28 475 15z"/>
<path d="M3667 4212 c-11 -12 -17 -36 -17 -64 0 -65 24 -83 140 -107 152 -31 158 -37 44 -44 -115 -8 -221 -31 -246 -54 -13 -12 -18 -31 -18 -69 0 -86 37 -99 193 -69 136 26 331 13 432 -29 56 -24 107 -21 133 7 18 19 22 35 22 91 l0 67 -56 59 c-64 68 -158 128 -258 165 -165 62 -336 84 -369 47z"/>
<path d="M6560 4143 c-172 -17 -360 -87 -469 -173 -71 -56 -91 -92 -91 -161 0 -97 47 -118 182 -82 95 25 289 23 395 -5 109 -29 163 -29 191 1 28 30 29 85 2 119 -24 31 -140 65 -255 77 -73 7 -78 9 -52 19 15 6 69 17 120 23 115 14 137 30 137 100 0 39 -4 51 -26 68 -26 21 -49 23 -134 14z"/>
<path d="M4666 3949 c-22 -17 -26 -28 -26 -72 0 -110 87 -220 198 -253 84 -24 244 -17 296 14 37 22 38 22 64 4 85 -60 268 -65 371 -12 117 60 191 229 128 288 -35 33 -96 30 -129 -5 -14 -16 -29 -38 -32 -50 -10 -33 -69 -79 -110 -87 -74 -14 -156 32 -156 89 0 12 -10 31 -23 43 -50 47 -167 16 -167 -44 0 -14 -11 -36 -25 -49 -19 -20 -34 -25 -75 -25 -88 0 -147 40 -165 113 -16 61 -97 87 -149 46z"/>
</g>
</svg>