<svg viewBox="356.86 601 322.22 62.97" xmlns="http://www.w3.org/2000/svg">
<g transform="translate(0 1024) scale(.1 -.1)">
<path d="m3666 4208c-9-12-16-41-16-63 0-59 27-80 125-99 44-8 98-21 120-29l39-14-93-7c-120-9-230-32-253-53-28-25-25-103 5-131 28-26 57-27 164-7 110 21 240 19 353-6 214-48 240-40 240 75v70l-68 67c-52 51-92 78-172 118-120 59-273 101-367 101-53 0-64-3-77-22z"/>
<path d="m6430 4120c-178-38-371-146-416-232-8-15-14-51-14-81 0-92 55-118 175-82 28 9 97 18 155 21 86 5 123 2 205-16 157-34 195-36 228-10 34 27 37 84 8 122-23 29-141 63-261 76-69 8-73 9-47 20 15 7 69 17 120 23 115 15 137 31 137 99 0 69-17 80-121 79-46-1-122-9-169-19z"/>
<path d="m4656 3938c-40-56-3-182 73-251 64-57 138-79 256-75 78 2 110 8 143 25l43 21 57-30c56-29 60-30 177-26 137 4 176 18 238 87 80 88 99 172 50 223-54 57-123 30-165-63-23-51-91-84-155-74-54 8-103 50-103 89 0 62-116 91-165 41-14-13-25-32-25-42 0-53-72-90-144-73-57 13-87 39-121 106l-30 59-57 3c-49 3-58 0-72-20z"/>
</g>
</svg>
