<?xml version="1.0" encoding="UTF-8"?>
<svg enable-background="new 0 0 122.88 121.2" version="1.1" viewBox="0 0 122.88 121.2" xml:space="preserve" xmlns="http://www.w3.org/2000/svg"><path d="m11.27 0h100.34c3.1 0 5.92 1.27 7.96 3.31s3.31 4.86 3.31 7.96v98.66c0 3.14-1.6 5.94-3.94 7.96-2.37 2.04-5.58 3.31-8.64 3.31h-99.03c-3.1 0-5.92-1.27-7.96-3.31s-3.31-4.86-3.31-7.96v-98.66c0-3.09 1.27-5.91 3.31-7.95l0.01-0.01c2.04-2.04 4.86-3.31 7.95-3.31zm49.95 52.51c2.84 0 5.41 1.15 7.26 3.01 1.86 1.86 3.01 4.43 3.01 7.26 0 2.84-1.15 5.41-3.01 7.26-1.19 1.19-2.67 2.09-4.32 2.58v42.19h16.23v-36.68c0-0.88 0.38-1.66 0.99-2.2l9.47-9.72c-0.73-1.41-1.15-3.02-1.15-4.73 0-2.84 1.15-5.41 3.01-7.26 1.86-1.86 4.43-3.01 7.26-3.01 2.84 0 5.41 1.15 7.27 3.01s3.01 4.43 3.01 7.26c0 2.84-1.15 5.41-3.01 7.27s-4.43 3.01-7.27 3.01c-1.83 0-3.56-0.48-5.05-1.32l-8.65 8.88v35.51h24.02c1.55 0 3.21-0.68 4.48-1.77 1.03-0.88 1.72-1.99 1.72-3.12v-98.67c0-1.34-0.55-2.56-1.44-3.45s-2.11-1.44-3.45-1.44h-26.9v9.96c1.65 0.49 3.13 1.39 4.32 2.58 1.86 1.86 3.01 4.43 3.01 7.27s-1.15 5.41-3.01 7.26c-1.86 1.86-4.43 3.01-7.26 3.01-2.84 0-5.41-1.15-7.26-3.01-1.86-1.86-3.01-4.43-3.01-7.26 0-2.84 1.15-5.41 3.01-7.27l0.16-0.15c1.16-1.11 2.58-1.96 4.16-2.43v-9.96h-20.91v22.98c0 1.63-1.32 2.94-2.94 2.94h-7.57c-0.47 1.77-1.41 3.36-2.66 4.62-1.86 1.86-4.43 3.01-7.26 3.01-2.84 0-5.41-1.15-7.26-3.01-1.86-1.86-3.01-4.43-3.01-7.26 0-2.84 1.15-5.41 3.01-7.26 1.86-1.86 4.43-3.01 7.26-3.01 2.84 0 5.41 1.15 7.26 3.01 1.12 1.12 1.98 2.49 2.49 4.03h4.8v-20.05h-40.76c-1.35 0-2.57 0.55-3.46 1.43-0.88 0.89-1.43 2.11-1.43 3.46v98.66c0 1.34 0.55 2.56 1.44 3.45s2.11 1.44 3.45 1.44h24.99v-23.21l-4.56-4.22c-1.43 0.75-3.05 1.18-4.78 1.18-2.84 0-5.41-1.15-7.26-3.01-1.86-1.86-3.01-4.43-3.01-7.26 0-2.84 1.15-5.41 3.01-7.26 1.86-1.86 4.43-3.01 7.26-3.01 2.84 0 5.41 1.15 7.26 3.01 1.86 1.86 3.01 4.43 3.01 7.26 0 1.82-0.47 3.52-1.3 5l5.08 4.7c0.71 0.54 1.17 1.39 1.17 2.35v24.48h16.13v-42.2c-1.65-0.49-3.13-1.39-4.32-2.58-1.86-1.86-3.01-4.43-3.01-7.26 0-2.84 1.15-5.41 3.01-7.26 1.87-1.87 4.44-3.02 7.27-3.02zm-20.04-26.56c-0.95-0.95-2.26-1.54-3.71-1.54s-2.76 0.59-3.71 1.54-1.54 2.26-1.54 3.71 0.59 2.76 1.54 3.71 2.26 1.54 3.71 1.54 2.76-0.59 3.71-1.54 1.54-2.26 1.54-3.71-0.59-2.76-1.54-3.71zm44.29-3.48c-0.95-0.95-2.26-1.54-3.71-1.54-1.4 0-2.67 0.54-3.61 1.43l-0.1 0.11c-0.95 0.95-1.54 2.26-1.54 3.71s0.59 2.76 1.54 3.71 2.26 1.54 3.71 1.54 2.76-0.59 3.71-1.54 1.54-2.26 1.54-3.71c-0.01-1.45-0.59-2.76-1.54-3.71zm-58.55 50.57c-1.45 0-2.76 0.59-3.71 1.54s-1.54 2.26-1.54 3.71 0.59 2.76 1.54 3.71 2.26 1.54 3.71 1.54 2.76-0.59 3.71-1.54 1.54-2.26 1.54-3.71-0.59-2.76-1.54-3.71-2.26-1.54-3.71-1.54zm76.77-15.27c-0.95-0.95-2.26-1.54-3.71-1.54s-2.76 0.59-3.71 1.54-1.54 2.26-1.54 3.71 0.59 2.76 1.54 3.71 2.26 1.54 3.71 1.54 2.76-0.59 3.71-1.54 1.54-2.26 1.54-3.71c-0.01-1.45-0.59-2.76-1.54-3.71zm-38.76 1.31c-0.95-0.95-2.26-1.54-3.71-1.54s-2.76 0.59-3.71 1.54-1.54 2.26-1.54 3.71 0.59 2.76 1.54 3.71 2.26 1.54 3.71 1.54 2.76-0.59 3.71-1.54 1.54-2.26 1.54-3.71-0.59-2.76-1.54-3.71z"/></svg>
