<svg enable-background="new 0 0 76.00 76.00" baseProfile="full" version="1.1" viewBox="15.83 15.83 44.33 44.33" xml:space="preserve" xmlns="http://www.w3.org/2000/svg">
	<path d="m38 15.833c12.242 0 22.167 9.9244 22.167 22.167s-9.9244 22.167-22.167 22.167-22.167-9.9244-22.167-22.167 9.9244-22.167 22.167-22.167zm-18.935 20.583h6.3001c0.1057-2.6207 0.4717-5.1156 1.0531-7.4061-1.4711-0.5161-2.8286-1.1275-4.0463-1.8193-1.8438 2.6609-3.0256 5.8155-3.3069 9.2254zm10.989-15.68c-2.1572 0.9945-4.0962 2.3814-5.7255 4.0693 0.9074 0.47 1.9109 0.8933 2.9946 1.2621 0.7408-2.0258 1.6647-3.8267 2.7309-5.3314zm6.3626 15.68v-5.5735c-2.4704-0.0996-4.8289-0.4306-7.0098-0.9551-0.4748 2.0081-0.7787 4.2093-0.8744 6.5286h7.8842zm0-17.154c-2.5143 0.8436-4.6936 3.6624-6.1256 7.6312 1.8983 0.4218 3.9604 0.6926 6.1256 0.7819v-8.4131zm20.518 17.154c-0.2813-3.4099-1.463-6.5644-3.3068-9.2254-1.2177 0.6918-2.5753 1.3033-4.0463 1.8194 0.5813 2.2904 0.9473 4.7853 1.053 7.406h6.3001zm-10.989-15.68c1.0661 1.5047 1.99 3.3057 2.7308 5.3314 1.0838-0.3688 2.0872-0.7921 2.9947-1.2621-1.6293-1.6879-3.5683-3.0748-5.7255-4.0693zm-6.3626 15.68h7.8841c-0.0956-2.3193-0.3996-4.5205-0.8743-6.5286-2.1809 0.5245-4.5395 0.8555-7.0098 0.9551v5.5735zm0-17.154v8.4131c2.1651-0.0893 4.2273-0.3601 6.1255-0.7819-1.4319-3.9688-3.6113-6.7875-6.1255-7.6312zm17.352 20.321h-6.3001c-0.1057 2.6206-0.4717 5.1155-1.053 7.406 1.471 0.5161 2.8286 1.1275 4.0463 1.8193 1.8438-2.6609 3.0255-5.8155 3.3068-9.2253zm-10.989 15.68c2.1572-0.9946 4.0962-2.3815 5.7255-4.0694-0.9074-0.47-1.9109-0.8933-2.9947-1.2621-0.7408 2.0258-1.6647 3.8268-2.7308 5.3315zm-6.3626-15.68v5.5734c2.4703 0.0996 4.8289 0.4306 7.0098 0.9551 0.4747-2.0081 0.7787-4.2092 0.8744-6.5285h-7.8842zm0 17.154c2.5142-0.8436 4.6936-3.6623 6.1256-7.6312-1.8983-0.4218-3.9605-0.6926-6.1256-0.7819v8.4131zm-20.518-17.154c0.2813 3.4098 1.4631 6.5644 3.3069 9.2253 1.2177-0.6918 2.5752-1.3032 4.0463-1.8193-0.5814-2.2905-0.9474-4.7854-1.0531-7.406h-6.3001zm10.989 15.68c-1.0661-1.5047-1.99-3.3057-2.7309-5.3315-1.0837 0.3688-2.0872 0.7921-2.9946 1.2622 1.6293 1.6878 3.5683 3.0748 5.7255 4.0693zm6.3626-15.68h-7.8842c0.0957 2.3193 0.3996 4.5205 0.8744 6.5285 2.1809-0.5245 4.5394-0.8555 7.0098-0.9551v-5.5734zm0 17.154v-8.4131c-2.1652 0.0893-4.2274 0.3601-6.1256 0.7819 1.432 3.9689 3.6113 6.7876 6.1256 7.6312z" stroke-linejoin="round" stroke-width=".2"/>
</svg>
