<?xml version="1.0" encoding="UTF-8"?>
<svg enable-background="new 0 0 122.88 91.26" version="1.1" viewBox="0 0 122.88 91.26" xml:space="preserve" xmlns="http://www.w3.org/2000/svg"><style type="text/css">.st0{fill-rule:evenodd;clip-rule:evenodd;}</style><path class="st0" d="m8.32 0h106.24c4.58 0 8.32 3.74 8.32 8.32v74.62c0 4.57-3.74 8.32-8.32 8.32h-106.24c-4.58 0-8.32-3.75-8.32-8.32v-74.62c0-4.58 3.74-8.32 8.32-8.32zm46.14 72.22-22.46-13.61v-8.63l22.46-13.61v10.26l-13.65 7.69 13.65 7.7v10.2zm13.96 0 22.46-13.61v-8.63l-22.46-13.61v10.26l13.65 7.69-13.65 7.7v10.2zm49.55-48.93h-112.68v60.46c0 0.64 0.25 1.2 0.67 1.63 0.42 0.42 0.99 0.67 1.63 0.67h108.04c0.64 0 1.2-0.25 1.63-0.67 0.43-0.43 0.67-0.99 0.67-1.63v-60.46h0.04zm-11.33-13.94c2.27 0 4.11 1.84 4.11 4.11s-1.84 4.11-4.11 4.11-4.11-1.84-4.11-4.11c0.01-2.27 1.85-4.11 4.11-4.11zm-27.84 0c2.27 0 4.11 1.84 4.11 4.11s-1.84 4.11-4.11 4.11-4.11-1.84-4.11-4.11 1.84-4.11 4.11-4.11zm13.92 0c2.27 0 4.11 1.84 4.11 4.11s-1.84 4.11-4.11 4.11-4.11-1.84-4.11-4.11 1.84-4.11 4.11-4.11z"/></svg>
