<svg viewBox="1.41 7.17 252.9 241.37" xml:space="preserve" xmlns="http://www.w3.org/2000/svg">
<g transform="translate(1.4066 1.4066) scale(2.81)" >
	<path d="m47.755 3.765 11.525 23.353c0.448 0.907 1.313 1.535 2.314 1.681l25.772 3.745c2.52 0.366 3.527 3.463 1.703 5.241l-18.649 18.177c-0.724 0.706-1.055 1.723-0.884 2.72l4.402 25.667c0.431 2.51-2.204 4.424-4.458 3.239l-23.05-12.118c-0.895-0.471-1.965-0.471-2.86 0l-23.051 12.118c-2.254 1.185-4.889-0.729-4.458-3.239l4.402-25.667c0.171-0.997-0.16-2.014-0.884-2.72l-18.648-18.178c-1.824-1.778-0.817-4.875 1.703-5.241l25.772-3.745c1.001-0.145 1.866-0.774 2.314-1.681l11.525-23.352c1.127-2.284 4.383-2.284 5.51 0z" stroke-linecap="round"/>
</g>
</svg>
